<mxfile host="app.diagrams.net" modified="2023-07-12T15:28:39.139Z" agent="Mozilla/5.0 (Windows NT 10.0; Win64; x64) AppleWebKit/537.36 (KHTML, like Gecko) Chrome/114.0.0.0 Safari/537.36" etag="MK4kBvxW2tpD7eowLJlt" version="21.6.2" type="google">
  <diagram name="第 1 页" id="IECWrCyRatb1NyeB0b4V">
    <mxGraphModel grid="1" page="1" gridSize="10" guides="1" tooltips="1" connect="1" arrows="1" fold="1" pageScale="1" pageWidth="827" pageHeight="1169" math="0" shadow="0">
      <root>
        <mxCell id="0" />
        <mxCell id="1" parent="0" />
        <mxCell id="w8hVPSfSZ9pf_fMig6mf-1" value="User" style="html=1;whiteSpace=wrap;" vertex="1" parent="1">
          <mxGeometry x="389" y="240" width="110" height="50" as="geometry" />
        </mxCell>
        <mxCell id="w8hVPSfSZ9pf_fMig6mf-2" value="Goal" style="html=1;whiteSpace=wrap;" vertex="1" parent="1">
          <mxGeometry x="389" y="340" width="110" height="50" as="geometry" />
        </mxCell>
        <mxCell id="w8hVPSfSZ9pf_fMig6mf-3" value="Group" style="html=1;whiteSpace=wrap;" vertex="1" parent="1">
          <mxGeometry x="249" y="340" width="110" height="50" as="geometry" />
        </mxCell>
        <mxCell id="w8hVPSfSZ9pf_fMig6mf-4" value="Reward" style="html=1;whiteSpace=wrap;" vertex="1" parent="1">
          <mxGeometry x="569" y="340" width="110" height="50" as="geometry" />
        </mxCell>
        <mxCell id="w8hVPSfSZ9pf_fMig6mf-5" value="Notification" style="html=1;whiteSpace=wrap;" vertex="1" parent="1">
          <mxGeometry x="99" y="340" width="110" height="50" as="geometry" />
        </mxCell>
        <mxCell id="w8hVPSfSZ9pf_fMig6mf-6" value="Regular user" style="html=1;whiteSpace=wrap;" vertex="1" parent="1">
          <mxGeometry x="249" y="100" width="110" height="50" as="geometry" />
        </mxCell>
        <mxCell id="w8hVPSfSZ9pf_fMig6mf-7" value="Premium user" style="html=1;whiteSpace=wrap;" vertex="1" parent="1">
          <mxGeometry x="529" y="100" width="110" height="50" as="geometry" />
        </mxCell>
        <mxCell id="w8hVPSfSZ9pf_fMig6mf-11" value="Extends" style="endArrow=block;endSize=16;endFill=0;html=1;rounded=0;exitX=0.5;exitY=0;exitDx=0;exitDy=0;entryX=0.5;entryY=1;entryDx=0;entryDy=0;" edge="1" parent="1" source="w8hVPSfSZ9pf_fMig6mf-1" target="w8hVPSfSZ9pf_fMig6mf-6">
          <mxGeometry width="160" relative="1" as="geometry">
            <mxPoint x="439" y="190" as="sourcePoint" />
            <mxPoint x="332" y="140" as="targetPoint" />
            <Array as="points">
              <mxPoint x="444" y="190" />
              <mxPoint x="304" y="190" />
            </Array>
          </mxGeometry>
        </mxCell>
        <mxCell id="w8hVPSfSZ9pf_fMig6mf-12" value="Extends" style="endArrow=block;endSize=16;endFill=0;html=1;rounded=0;exitX=0.5;exitY=0;exitDx=0;exitDy=0;entryX=0.5;entryY=1;entryDx=0;entryDy=0;" edge="1" parent="1" source="w8hVPSfSZ9pf_fMig6mf-1" target="w8hVPSfSZ9pf_fMig6mf-7">
          <mxGeometry width="160" relative="1" as="geometry">
            <mxPoint x="379" y="310" as="sourcePoint" />
            <mxPoint x="539" y="310" as="targetPoint" />
            <Array as="points">
              <mxPoint x="444" y="190" />
              <mxPoint x="584" y="190" />
            </Array>
          </mxGeometry>
        </mxCell>
        <mxCell id="w8hVPSfSZ9pf_fMig6mf-21" value="" style="endArrow=diamondThin;endFill=1;endSize=24;html=1;rounded=0;entryX=0.5;entryY=1;entryDx=0;entryDy=0;exitX=0.5;exitY=0;exitDx=0;exitDy=0;" edge="1" parent="1" source="w8hVPSfSZ9pf_fMig6mf-2" target="w8hVPSfSZ9pf_fMig6mf-1">
          <mxGeometry width="160" relative="1" as="geometry">
            <mxPoint x="379" y="330" as="sourcePoint" />
            <mxPoint x="539" y="330" as="targetPoint" />
          </mxGeometry>
        </mxCell>
        <mxCell id="w8hVPSfSZ9pf_fMig6mf-30" value="1:N" style="edgeLabel;html=1;align=center;verticalAlign=middle;resizable=0;points=[];" connectable="0" vertex="1" parent="w8hVPSfSZ9pf_fMig6mf-21">
          <mxGeometry x="-0.38" y="1" relative="1" as="geometry">
            <mxPoint y="1" as="offset" />
          </mxGeometry>
        </mxCell>
        <mxCell id="w8hVPSfSZ9pf_fMig6mf-22" value="" style="endArrow=diamondThin;endFill=0;endSize=24;html=1;rounded=0;entryX=0;entryY=0.75;entryDx=0;entryDy=0;exitX=0.5;exitY=0;exitDx=0;exitDy=0;" edge="1" parent="1" source="w8hVPSfSZ9pf_fMig6mf-3" target="w8hVPSfSZ9pf_fMig6mf-1">
          <mxGeometry width="160" relative="1" as="geometry">
            <mxPoint x="379" y="330" as="sourcePoint" />
            <mxPoint x="539" y="330" as="targetPoint" />
            <Array as="points">
              <mxPoint x="304" y="278" />
            </Array>
          </mxGeometry>
        </mxCell>
        <mxCell id="w8hVPSfSZ9pf_fMig6mf-29" value="1:N" style="edgeLabel;html=1;align=center;verticalAlign=middle;resizable=0;points=[];" connectable="0" vertex="1" parent="w8hVPSfSZ9pf_fMig6mf-22">
          <mxGeometry x="0.4014" relative="1" as="geometry">
            <mxPoint as="offset" />
          </mxGeometry>
        </mxCell>
        <mxCell id="w8hVPSfSZ9pf_fMig6mf-23" value="" style="endArrow=open;endFill=1;endSize=12;html=1;rounded=0;entryX=1;entryY=0.5;entryDx=0;entryDy=0;exitX=0.5;exitY=0;exitDx=0;exitDy=0;" edge="1" parent="1" source="w8hVPSfSZ9pf_fMig6mf-4" target="w8hVPSfSZ9pf_fMig6mf-1">
          <mxGeometry width="160" relative="1" as="geometry">
            <mxPoint x="379" y="330" as="sourcePoint" />
            <mxPoint x="539" y="330" as="targetPoint" />
            <Array as="points">
              <mxPoint x="624" y="265" />
            </Array>
          </mxGeometry>
        </mxCell>
        <mxCell id="w8hVPSfSZ9pf_fMig6mf-31" value="1:N" style="edgeLabel;html=1;align=center;verticalAlign=middle;resizable=0;points=[];" connectable="0" vertex="1" parent="w8hVPSfSZ9pf_fMig6mf-23">
          <mxGeometry x="-0.14" y="-1" relative="1" as="geometry">
            <mxPoint as="offset" />
          </mxGeometry>
        </mxCell>
        <mxCell id="w8hVPSfSZ9pf_fMig6mf-24" value="" style="endArrow=open;endFill=1;endSize=12;html=1;rounded=0;exitX=0.5;exitY=1;exitDx=0;exitDy=0;entryX=0.5;entryY=1;entryDx=0;entryDy=0;" edge="1" parent="1" source="w8hVPSfSZ9pf_fMig6mf-4" target="w8hVPSfSZ9pf_fMig6mf-2">
          <mxGeometry width="160" relative="1" as="geometry">
            <mxPoint x="379" y="330" as="sourcePoint" />
            <mxPoint x="449" y="440" as="targetPoint" />
            <Array as="points">
              <mxPoint x="624" y="440" />
              <mxPoint x="444" y="440" />
            </Array>
          </mxGeometry>
        </mxCell>
        <mxCell id="w8hVPSfSZ9pf_fMig6mf-25" value="" style="endArrow=open;endFill=1;endSize=12;html=1;rounded=0;exitX=1;exitY=0.5;exitDx=0;exitDy=0;entryX=0.5;entryY=1;entryDx=0;entryDy=0;" edge="1" parent="1" source="w8hVPSfSZ9pf_fMig6mf-4" target="w8hVPSfSZ9pf_fMig6mf-3">
          <mxGeometry width="160" relative="1" as="geometry">
            <mxPoint x="379" y="330" as="sourcePoint" />
            <mxPoint x="539" y="330" as="targetPoint" />
            <Array as="points">
              <mxPoint x="729" y="365" />
              <mxPoint x="729" y="460" />
              <mxPoint x="304" y="460" />
            </Array>
          </mxGeometry>
        </mxCell>
        <mxCell id="w8hVPSfSZ9pf_fMig6mf-26" value="" style="endArrow=diamondThin;endFill=1;endSize=24;html=1;rounded=0;entryX=0;entryY=0.25;entryDx=0;entryDy=0;exitX=0.5;exitY=0;exitDx=0;exitDy=0;" edge="1" parent="1" source="w8hVPSfSZ9pf_fMig6mf-5" target="w8hVPSfSZ9pf_fMig6mf-1">
          <mxGeometry width="160" relative="1" as="geometry">
            <mxPoint x="379" y="350" as="sourcePoint" />
            <mxPoint x="539" y="350" as="targetPoint" />
            <Array as="points">
              <mxPoint x="154" y="253" />
            </Array>
          </mxGeometry>
        </mxCell>
        <mxCell id="w8hVPSfSZ9pf_fMig6mf-27" value="1:N" style="edgeLabel;html=1;align=center;verticalAlign=middle;resizable=0;points=[];" connectable="0" vertex="1" parent="w8hVPSfSZ9pf_fMig6mf-26">
          <mxGeometry x="0.4348" y="3" relative="1" as="geometry">
            <mxPoint as="offset" />
          </mxGeometry>
        </mxCell>
        <mxCell id="w8hVPSfSZ9pf_fMig6mf-32" value="LogInOutService" style="swimlane;fontStyle=1;align=center;verticalAlign=top;childLayout=stackLayout;horizontal=1;startSize=26;horizontalStack=0;resizeParent=1;resizeParentMax=0;resizeLast=0;collapsible=1;marginBottom=0;whiteSpace=wrap;html=1;" vertex="1" parent="1">
          <mxGeometry x="80" y="560" width="190" height="70" as="geometry" />
        </mxCell>
        <mxCell id="w8hVPSfSZ9pf_fMig6mf-33" value="+ login(email, password): boolean&lt;br&gt;+ logout(): boolean" style="text;strokeColor=none;fillColor=none;align=left;verticalAlign=top;spacingLeft=4;spacingRight=4;overflow=hidden;rotatable=0;points=[[0,0.5],[1,0.5]];portConstraint=eastwest;whiteSpace=wrap;html=1;" vertex="1" parent="w8hVPSfSZ9pf_fMig6mf-32">
          <mxGeometry y="26" width="190" height="44" as="geometry" />
        </mxCell>
        <mxCell id="w8hVPSfSZ9pf_fMig6mf-36" value="UserRepository" style="swimlane;fontStyle=1;align=center;verticalAlign=top;childLayout=stackLayout;horizontal=1;startSize=26;horizontalStack=0;resizeParent=1;resizeParentMax=0;resizeLast=0;collapsible=1;marginBottom=0;whiteSpace=wrap;html=1;" vertex="1" parent="1">
          <mxGeometry x="600" y="540" width="160" height="90" as="geometry" />
        </mxCell>
        <mxCell id="w8hVPSfSZ9pf_fMig6mf-37" value="+ findById(string) User&lt;br&gt;+ updateById(string)&lt;br&gt;+ deleteById(string)&amp;nbsp;" style="text;strokeColor=none;fillColor=none;align=left;verticalAlign=top;spacingLeft=4;spacingRight=4;overflow=hidden;rotatable=0;points=[[0,0.5],[1,0.5]];portConstraint=eastwest;whiteSpace=wrap;html=1;" vertex="1" parent="w8hVPSfSZ9pf_fMig6mf-36">
          <mxGeometry y="26" width="160" height="64" as="geometry" />
        </mxCell>
        <mxCell id="w8hVPSfSZ9pf_fMig6mf-40" value="UserFactory" style="swimlane;fontStyle=1;align=center;verticalAlign=top;childLayout=stackLayout;horizontal=1;startSize=26;horizontalStack=0;resizeParent=1;resizeParentMax=0;resizeLast=0;collapsible=1;marginBottom=0;whiteSpace=wrap;html=1;" vertex="1" parent="1">
          <mxGeometry x="319" y="567" width="190" height="52" as="geometry" />
        </mxCell>
        <mxCell id="w8hVPSfSZ9pf_fMig6mf-41" value="+ create(email, password): User" style="text;strokeColor=none;fillColor=none;align=left;verticalAlign=top;spacingLeft=4;spacingRight=4;overflow=hidden;rotatable=0;points=[[0,0.5],[1,0.5]];portConstraint=eastwest;whiteSpace=wrap;html=1;" vertex="1" parent="w8hVPSfSZ9pf_fMig6mf-40">
          <mxGeometry y="26" width="190" height="26" as="geometry" />
        </mxCell>
        <mxCell id="w8hVPSfSZ9pf_fMig6mf-51" value="GoalFactory" style="swimlane;fontStyle=1;align=center;verticalAlign=top;childLayout=stackLayout;horizontal=1;startSize=26;horizontalStack=0;resizeParent=1;resizeParentMax=0;resizeLast=0;collapsible=1;marginBottom=0;whiteSpace=wrap;html=1;" vertex="1" parent="1">
          <mxGeometry x="319" y="680" width="190" height="52" as="geometry" />
        </mxCell>
        <mxCell id="w8hVPSfSZ9pf_fMig6mf-52" value="+ create(userId): Goal" style="text;strokeColor=none;fillColor=none;align=left;verticalAlign=top;spacingLeft=4;spacingRight=4;overflow=hidden;rotatable=0;points=[[0,0.5],[1,0.5]];portConstraint=eastwest;whiteSpace=wrap;html=1;" vertex="1" parent="w8hVPSfSZ9pf_fMig6mf-51">
          <mxGeometry y="26" width="190" height="26" as="geometry" />
        </mxCell>
        <mxCell id="w8hVPSfSZ9pf_fMig6mf-53" value="GoalRepository" style="swimlane;fontStyle=1;align=center;verticalAlign=top;childLayout=stackLayout;horizontal=1;startSize=26;horizontalStack=0;resizeParent=1;resizeParentMax=0;resizeLast=0;collapsible=1;marginBottom=0;whiteSpace=wrap;html=1;" vertex="1" parent="1">
          <mxGeometry x="590" y="670" width="180" height="100" as="geometry" />
        </mxCell>
        <mxCell id="w8hVPSfSZ9pf_fMig6mf-54" value="+ findByUserId(string) Goal[]&lt;br&gt;+ findByIds(string, string) Goal&lt;br&gt;+ updateByIds(string,&amp;nbsp;string)&amp;nbsp;&lt;br&gt;+ deleteByIds(string,&amp;nbsp;string)&amp;nbsp;" style="text;strokeColor=none;fillColor=none;align=left;verticalAlign=top;spacingLeft=4;spacingRight=4;overflow=hidden;rotatable=0;points=[[0,0.5],[1,0.5]];portConstraint=eastwest;whiteSpace=wrap;html=1;" vertex="1" parent="w8hVPSfSZ9pf_fMig6mf-53">
          <mxGeometry y="26" width="180" height="74" as="geometry" />
        </mxCell>
        <mxCell id="w8hVPSfSZ9pf_fMig6mf-55" value="GoalService" style="swimlane;fontStyle=1;align=center;verticalAlign=top;childLayout=stackLayout;horizontal=1;startSize=26;horizontalStack=0;resizeParent=1;resizeParentMax=0;resizeLast=0;collapsible=1;marginBottom=0;whiteSpace=wrap;html=1;" vertex="1" parent="1">
          <mxGeometry x="80" y="670" width="190" height="100" as="geometry" />
        </mxCell>
        <mxCell id="w8hVPSfSZ9pf_fMig6mf-56" value="+ add(userId, goalId)&lt;br&gt;+ update(userId, goalId)&lt;br&gt;+ tomatoes(time)&lt;br&gt;+ viewProgress(goalId)" style="text;strokeColor=none;fillColor=none;align=left;verticalAlign=top;spacingLeft=4;spacingRight=4;overflow=hidden;rotatable=0;points=[[0,0.5],[1,0.5]];portConstraint=eastwest;whiteSpace=wrap;html=1;" vertex="1" parent="w8hVPSfSZ9pf_fMig6mf-55">
          <mxGeometry y="26" width="190" height="74" as="geometry" />
        </mxCell>
        <mxCell id="w8hVPSfSZ9pf_fMig6mf-57" value="RewardService" style="swimlane;fontStyle=1;align=center;verticalAlign=top;childLayout=stackLayout;horizontal=1;startSize=26;horizontalStack=0;resizeParent=1;resizeParentMax=0;resizeLast=0;collapsible=1;marginBottom=0;whiteSpace=wrap;html=1;" vertex="1" parent="1">
          <mxGeometry x="80" y="805" width="190" height="60" as="geometry" />
        </mxCell>
        <mxCell id="w8hVPSfSZ9pf_fMig6mf-58" value="+ add(userId, rewardId)" style="text;strokeColor=none;fillColor=none;align=left;verticalAlign=top;spacingLeft=4;spacingRight=4;overflow=hidden;rotatable=0;points=[[0,0.5],[1,0.5]];portConstraint=eastwest;whiteSpace=wrap;html=1;" vertex="1" parent="w8hVPSfSZ9pf_fMig6mf-57">
          <mxGeometry y="26" width="190" height="34" as="geometry" />
        </mxCell>
        <mxCell id="w8hVPSfSZ9pf_fMig6mf-59" value="RewardRepository" style="swimlane;fontStyle=1;align=center;verticalAlign=top;childLayout=stackLayout;horizontal=1;startSize=26;horizontalStack=0;resizeParent=1;resizeParentMax=0;resizeLast=0;collapsible=1;marginBottom=0;whiteSpace=wrap;html=1;" vertex="1" parent="1">
          <mxGeometry x="585" y="800" width="190" height="70" as="geometry" />
        </mxCell>
        <mxCell id="w8hVPSfSZ9pf_fMig6mf-60" value="+ findById(string): Reward&lt;br&gt;+ getAll(): reward[]" style="text;strokeColor=none;fillColor=none;align=left;verticalAlign=top;spacingLeft=4;spacingRight=4;overflow=hidden;rotatable=0;points=[[0,0.5],[1,0.5]];portConstraint=eastwest;whiteSpace=wrap;html=1;" vertex="1" parent="w8hVPSfSZ9pf_fMig6mf-59">
          <mxGeometry y="26" width="190" height="44" as="geometry" />
        </mxCell>
        <mxCell id="w8hVPSfSZ9pf_fMig6mf-61" value="GroupFactory" style="swimlane;fontStyle=1;align=center;verticalAlign=top;childLayout=stackLayout;horizontal=1;startSize=26;horizontalStack=0;resizeParent=1;resizeParentMax=0;resizeLast=0;collapsible=1;marginBottom=0;whiteSpace=wrap;html=1;" vertex="1" parent="1">
          <mxGeometry x="330" y="909" width="190" height="52" as="geometry" />
        </mxCell>
        <mxCell id="w8hVPSfSZ9pf_fMig6mf-62" value="+ create(userID):Group" style="text;strokeColor=none;fillColor=none;align=left;verticalAlign=top;spacingLeft=4;spacingRight=4;overflow=hidden;rotatable=0;points=[[0,0.5],[1,0.5]];portConstraint=eastwest;whiteSpace=wrap;html=1;" vertex="1" parent="w8hVPSfSZ9pf_fMig6mf-61">
          <mxGeometry y="26" width="190" height="26" as="geometry" />
        </mxCell>
        <mxCell id="w8hVPSfSZ9pf_fMig6mf-63" value="GroupRepository" style="swimlane;fontStyle=1;align=center;verticalAlign=top;childLayout=stackLayout;horizontal=1;startSize=26;horizontalStack=0;resizeParent=1;resizeParentMax=0;resizeLast=0;collapsible=1;marginBottom=0;whiteSpace=wrap;html=1;" vertex="1" parent="1">
          <mxGeometry x="585" y="890" width="190" height="80" as="geometry" />
        </mxCell>
        <mxCell id="w8hVPSfSZ9pf_fMig6mf-64" value="+ findById(string): Group&lt;br&gt;+ updateById(string)&lt;br&gt;+ deleteById(string)" style="text;strokeColor=none;fillColor=none;align=left;verticalAlign=top;spacingLeft=4;spacingRight=4;overflow=hidden;rotatable=0;points=[[0,0.5],[1,0.5]];portConstraint=eastwest;whiteSpace=wrap;html=1;" vertex="1" parent="w8hVPSfSZ9pf_fMig6mf-63">
          <mxGeometry y="26" width="190" height="54" as="geometry" />
        </mxCell>
        <mxCell id="w8hVPSfSZ9pf_fMig6mf-65" value="GroupService" style="swimlane;fontStyle=1;align=center;verticalAlign=top;childLayout=stackLayout;horizontal=1;startSize=26;horizontalStack=0;resizeParent=1;resizeParentMax=0;resizeLast=0;collapsible=1;marginBottom=0;whiteSpace=wrap;html=1;" vertex="1" parent="1">
          <mxGeometry x="80" y="890" width="190" height="90" as="geometry" />
        </mxCell>
        <mxCell id="w8hVPSfSZ9pf_fMig6mf-66" value="+ addMember(groupId, userId)&lt;br&gt;+ getAllMembers(groupId)&lt;br&gt;+ deleteMember(groupId, userId)" style="text;strokeColor=none;fillColor=none;align=left;verticalAlign=top;spacingLeft=4;spacingRight=4;overflow=hidden;rotatable=0;points=[[0,0.5],[1,0.5]];portConstraint=eastwest;whiteSpace=wrap;html=1;" vertex="1" parent="w8hVPSfSZ9pf_fMig6mf-65">
          <mxGeometry y="26" width="190" height="64" as="geometry" />
        </mxCell>
        <mxCell id="w8hVPSfSZ9pf_fMig6mf-67" value="" style="endArrow=open;endFill=1;endSize=12;html=1;rounded=0;exitX=0.5;exitY=0;exitDx=0;exitDy=0;entryX=0.5;entryY=0;entryDx=0;entryDy=0;" edge="1" parent="1" source="w8hVPSfSZ9pf_fMig6mf-32" target="w8hVPSfSZ9pf_fMig6mf-40">
          <mxGeometry width="160" relative="1" as="geometry">
            <mxPoint x="270" y="570" as="sourcePoint" />
            <mxPoint x="420" y="570" as="targetPoint" />
            <Array as="points">
              <mxPoint x="180" y="530" />
              <mxPoint x="300" y="530" />
              <mxPoint x="414" y="530" />
            </Array>
          </mxGeometry>
        </mxCell>
        <mxCell id="w8hVPSfSZ9pf_fMig6mf-68" value="" style="endArrow=open;endFill=1;endSize=12;html=1;rounded=0;exitX=0.997;exitY=0.372;exitDx=0;exitDy=0;exitPerimeter=0;entryX=0;entryY=0.5;entryDx=0;entryDy=0;" edge="1" parent="1" source="w8hVPSfSZ9pf_fMig6mf-56" target="w8hVPSfSZ9pf_fMig6mf-52">
          <mxGeometry width="160" relative="1" as="geometry">
            <mxPoint x="270" y="570" as="sourcePoint" />
            <mxPoint x="430" y="570" as="targetPoint" />
          </mxGeometry>
        </mxCell>
        <mxCell id="w8hVPSfSZ9pf_fMig6mf-69" value="" style="endArrow=open;endFill=1;endSize=12;html=1;rounded=0;exitX=0.5;exitY=0;exitDx=0;exitDy=0;entryX=0.503;entryY=0.961;entryDx=0;entryDy=0;entryPerimeter=0;" edge="1" parent="1" source="w8hVPSfSZ9pf_fMig6mf-55" target="w8hVPSfSZ9pf_fMig6mf-37">
          <mxGeometry width="160" relative="1" as="geometry">
            <mxPoint x="270" y="570" as="sourcePoint" />
            <mxPoint x="430" y="570" as="targetPoint" />
            <Array as="points">
              <mxPoint x="175" y="650" />
              <mxPoint x="680" y="650" />
            </Array>
          </mxGeometry>
        </mxCell>
        <mxCell id="w8hVPSfSZ9pf_fMig6mf-70" value="" style="endArrow=open;endFill=1;endSize=12;html=1;rounded=0;exitX=0.461;exitY=0.993;exitDx=0;exitDy=0;exitPerimeter=0;" edge="1" parent="1" source="w8hVPSfSZ9pf_fMig6mf-56">
          <mxGeometry width="160" relative="1" as="geometry">
            <mxPoint x="270" y="570" as="sourcePoint" />
            <mxPoint x="680" y="769" as="targetPoint" />
            <Array as="points">
              <mxPoint x="168" y="790" />
              <mxPoint x="680" y="790" />
            </Array>
          </mxGeometry>
        </mxCell>
        <mxCell id="w8hVPSfSZ9pf_fMig6mf-75" style="edgeStyle=orthogonalEdgeStyle;rounded=0;orthogonalLoop=1;jettySize=auto;html=1;exitX=1;exitY=0.5;exitDx=0;exitDy=0;entryX=0;entryY=0.5;entryDx=0;entryDy=0;" edge="1" parent="1" source="w8hVPSfSZ9pf_fMig6mf-58" target="w8hVPSfSZ9pf_fMig6mf-60">
          <mxGeometry relative="1" as="geometry" />
        </mxCell>
        <mxCell id="w8hVPSfSZ9pf_fMig6mf-78" style="edgeStyle=orthogonalEdgeStyle;rounded=0;orthogonalLoop=1;jettySize=auto;html=1;exitX=1;exitY=0.5;exitDx=0;exitDy=0;" edge="1" parent="1" source="w8hVPSfSZ9pf_fMig6mf-66" target="w8hVPSfSZ9pf_fMig6mf-62">
          <mxGeometry relative="1" as="geometry" />
        </mxCell>
        <mxCell id="w8hVPSfSZ9pf_fMig6mf-79" value="" style="endArrow=open;endFill=1;endSize=12;html=1;rounded=0;exitX=0.492;exitY=1.008;exitDx=0;exitDy=0;exitPerimeter=0;" edge="1" parent="1" source="w8hVPSfSZ9pf_fMig6mf-66" target="w8hVPSfSZ9pf_fMig6mf-64">
          <mxGeometry width="160" relative="1" as="geometry">
            <mxPoint x="300" y="1020" as="sourcePoint" />
            <mxPoint x="460" y="1020" as="targetPoint" />
            <Array as="points">
              <mxPoint x="173" y="1000" />
              <mxPoint x="680" y="1000" />
            </Array>
          </mxGeometry>
        </mxCell>
        <mxCell id="w8hVPSfSZ9pf_fMig6mf-80" value="NotificationFactory" style="swimlane;fontStyle=1;align=center;verticalAlign=top;childLayout=stackLayout;horizontal=1;startSize=26;horizontalStack=0;resizeParent=1;resizeParentMax=0;resizeLast=0;collapsible=1;marginBottom=0;whiteSpace=wrap;html=1;" vertex="1" parent="1">
          <mxGeometry x="330" y="1030" width="190" height="52" as="geometry" />
        </mxCell>
        <mxCell id="w8hVPSfSZ9pf_fMig6mf-81" value="+ create(userID): Notification" style="text;strokeColor=none;fillColor=none;align=left;verticalAlign=top;spacingLeft=4;spacingRight=4;overflow=hidden;rotatable=0;points=[[0,0.5],[1,0.5]];portConstraint=eastwest;whiteSpace=wrap;html=1;" vertex="1" parent="w8hVPSfSZ9pf_fMig6mf-80">
          <mxGeometry y="26" width="190" height="26" as="geometry" />
        </mxCell>
        <mxCell id="w8hVPSfSZ9pf_fMig6mf-82" value="NotificationRepository" style="swimlane;fontStyle=1;align=center;verticalAlign=top;childLayout=stackLayout;horizontal=1;startSize=26;horizontalStack=0;resizeParent=1;resizeParentMax=0;resizeLast=0;collapsible=1;marginBottom=0;whiteSpace=wrap;html=1;" vertex="1" parent="1">
          <mxGeometry x="580" y="1020" width="210" height="100" as="geometry" />
        </mxCell>
        <mxCell id="w8hVPSfSZ9pf_fMig6mf-83" value="+ findByUserId(string): Notification[]&lt;br&gt;+ findByIds(string, string) Goal&lt;br style=&quot;border-color: var(--border-color);&quot;&gt;+ updateByIds(string, string)&amp;nbsp;&lt;br style=&quot;border-color: var(--border-color);&quot;&gt;+ deleteByIds(string,&amp;nbsp;string)&amp;nbsp;" style="text;strokeColor=none;fillColor=none;align=left;verticalAlign=top;spacingLeft=4;spacingRight=4;overflow=hidden;rotatable=0;points=[[0,0.5],[1,0.5]];portConstraint=eastwest;whiteSpace=wrap;html=1;" vertex="1" parent="w8hVPSfSZ9pf_fMig6mf-82">
          <mxGeometry y="26" width="210" height="74" as="geometry" />
        </mxCell>
        <mxCell id="w8hVPSfSZ9pf_fMig6mf-85" value="NotificationService" style="swimlane;fontStyle=1;align=center;verticalAlign=top;childLayout=stackLayout;horizontal=1;startSize=26;horizontalStack=0;resizeParent=1;resizeParentMax=0;resizeLast=0;collapsible=1;marginBottom=0;whiteSpace=wrap;html=1;" vertex="1" parent="1">
          <mxGeometry x="80" y="1020" width="190" height="90" as="geometry" />
        </mxCell>
        <mxCell id="w8hVPSfSZ9pf_fMig6mf-86" value="+ add(notificationId, userId)&lt;br&gt;+ update(userId, notificationId)&lt;br&gt;+ delete(userId, notificationId)" style="text;strokeColor=none;fillColor=none;align=left;verticalAlign=top;spacingLeft=4;spacingRight=4;overflow=hidden;rotatable=0;points=[[0,0.5],[1,0.5]];portConstraint=eastwest;whiteSpace=wrap;html=1;" vertex="1" parent="w8hVPSfSZ9pf_fMig6mf-85">
          <mxGeometry y="26" width="190" height="64" as="geometry" />
        </mxCell>
        <mxCell id="w8hVPSfSZ9pf_fMig6mf-88" style="edgeStyle=orthogonalEdgeStyle;rounded=0;orthogonalLoop=1;jettySize=auto;html=1;exitX=1;exitY=0.5;exitDx=0;exitDy=0;entryX=0;entryY=0.5;entryDx=0;entryDy=0;" edge="1" parent="1" source="w8hVPSfSZ9pf_fMig6mf-86" target="w8hVPSfSZ9pf_fMig6mf-81">
          <mxGeometry relative="1" as="geometry" />
        </mxCell>
        <mxCell id="w8hVPSfSZ9pf_fMig6mf-92" value="" style="endArrow=open;endFill=1;endSize=12;html=1;rounded=0;exitX=0.487;exitY=1.047;exitDx=0;exitDy=0;exitPerimeter=0;entryX=0.512;entryY=1.054;entryDx=0;entryDy=0;entryPerimeter=0;" edge="1" parent="1" source="w8hVPSfSZ9pf_fMig6mf-86" target="w8hVPSfSZ9pf_fMig6mf-83">
          <mxGeometry width="160" relative="1" as="geometry">
            <mxPoint x="500" y="700" as="sourcePoint" />
            <mxPoint x="660" y="700" as="targetPoint" />
            <Array as="points">
              <mxPoint x="173" y="1150" />
              <mxPoint x="688" y="1150" />
            </Array>
          </mxGeometry>
        </mxCell>
      </root>
    </mxGraphModel>
  </diagram>
</mxfile>
